HIERARCHY
ROOT Hips
{
	OFFSET 0.000000 0.000000 0.000000
	CHANNELS 6 Xposition Yposition Zposition Xrotation Yrotation Zrotation
	JOINT LeftUpLeg_virtual
	{
		OFFSET 0.000000 0.000000 0.000000
		CHANNELS 3 Xrotation Yrotation Zrotation
		JOINT LeftUpLeg
		{
			OFFSET 11.394100 -6.187798 -0.413800
			CHANNELS 3 Xrotation Yrotation Zrotation
			JOINT LeftLeg
			{
				OFFSET 0.430247 -32.302673 3.732800
				CHANNELS 3 Xrotation Yrotation Zrotation
				JOINT LeftFoot
				{
					OFFSET -0.430247 -48.264931 -6.423300
					CHANNELS 3 Xrotation Yrotation Zrotation
					JOINT LeftToeBase
					{
						OFFSET 4.230900 -16.068199 23.438400
						CHANNELS 3 Xrotation Yrotation Zrotation
						JOINT LeftToe_End
						{
							OFFSET 4.510700 0.695400 19.974600
							CHANNELS 3 Xrotation Yrotation Zrotation
							End Site
							{
								OFFSET 0 0 0
							}
						}
					}
				}
			}
		}
	}
	JOINT RightUpLeg_virtual
	{
		OFFSET 0.000000 0.000000 0.000000
		CHANNELS 3 Xrotation Yrotation Zrotation
		JOINT RightUpLeg
		{
			OFFSET -11.333700 -6.187798 -0.413800
			CHANNELS 3 Xrotation Yrotation Zrotation
			JOINT RightLeg
			{
				OFFSET -0.430392 -32.302628 3.733000
				CHANNELS 3 Xrotation Yrotation Zrotation
				JOINT RightFoot
				{
					OFFSET 0.430392 -48.264973 -6.423500
					CHANNELS 3 Xrotation Yrotation Zrotation
					JOINT RightToeBase
					{
						OFFSET -4.230900 -16.068199 23.438400
						CHANNELS 3 Xrotation Yrotation Zrotation
						JOINT RightToe_End
						{
							OFFSET -4.510700 0.695400 19.974600
							CHANNELS 3 Xrotation Yrotation Zrotation
							End Site
							{
								OFFSET 0 0 0
							}
						}
					}
				}
			}
		}
	}
	JOINT Spine_virtual
	{
		OFFSET 0.000000 0.000000 0.000000
		CHANNELS 3 Xrotation Yrotation Zrotation
		JOINT Spine
		{
			OFFSET -0.002400 12.777504 0.315300
			CHANNELS 3 Xrotation Yrotation Zrotation
			JOINT Spine1
			{
				OFFSET -0.002067 5.816869 0.032633
				CHANNELS 3 Xrotation Yrotation Zrotation
				JOINT Spine1_split
				{
					OFFSET -0.002067 5.816869 0.032633
					CHANNELS 3 Xrotation Yrotation Zrotation
					JOINT Spine2
					{
						OFFSET -0.002067 5.816869 0.032633
						CHANNELS 3 Xrotation Yrotation Zrotation
						JOINT Neck_virtual
						{
							OFFSET 0.000000 0.000000 0.000000
							CHANNELS 3 Xrotation Yrotation Zrotation
							JOINT Neck
							{
								OFFSET -0.003700 21.199493 -0.826900
								CHANNELS 3 Xrotation Yrotation Zrotation
								JOINT Head
								{
									OFFSET 0.000000 20.442200 4.834800
									CHANNELS 3 Xrotation Yrotation Zrotation
									JOINT HeadTop_End
									{
										OFFSET 0.000000 34.668396 4.968400
										CHANNELS 3 Xrotation Yrotation Zrotation
										End Site
										{
											OFFSET 0 0 0
										}
									}
								}
							}
						}
						JOINT LeftShoulder_virtual
						{
							OFFSET 0.000000 0.000000 0.000000
							CHANNELS 3 Xrotation Yrotation Zrotation
							JOINT LeftShoulder
							{
								OFFSET 3.288150 8.794197 -1.372250
								CHANNELS 3 Xrotation Yrotation Zrotation
								JOINT LeftShoulder_split
								{
									OFFSET 3.288150 8.794197 -1.372250
									CHANNELS 3 Xrotation Yrotation Zrotation
									JOINT LeftArm
									{
										OFFSET 11.953299 -2.279007 -0.146200
										CHANNELS 3 Xrotation Yrotation Zrotation
										JOINT LeftForeArm
										{
											OFFSET 18.448900 0.000000 0.000000
											CHANNELS 3 Xrotation Yrotation Zrotation
											JOINT LeftHand
											{
												OFFSET 29.527798 0.000000 0.000000
												CHANNELS 3 Xrotation Yrotation Zrotation
												End Site
												{
													OFFSET 0 0 0
												}
											}
										}
									}
								}
							}
						}
						JOINT RightShoulder_virtual
						{
							OFFSET 0.000000 0.000000 0.000000
							CHANNELS 3 Xrotation Yrotation Zrotation
							JOINT RightShoulder
							{
								OFFSET -3.249400 8.794197 -1.372250
								CHANNELS 3 Xrotation Yrotation Zrotation
								JOINT RightShoulder_split
								{
									OFFSET -3.249400 8.794197 -1.372250
									CHANNELS 3 Xrotation Yrotation Zrotation
									JOINT RightArm
									{
										OFFSET -11.953299 -2.279007 -0.146200
										CHANNELS 3 Xrotation Yrotation Zrotation
										JOINT RightForeArm
										{
											OFFSET -18.448900 0.000000 0.000000
											CHANNELS 3 Xrotation Yrotation Zrotation
											JOINT RightHand
											{
												OFFSET -29.527802 0.000000 0.000000
												CHANNELS 3 Xrotation Yrotation Zrotation
												End Site
												{
													OFFSET 0 0 0
												}
											}
										}
									}
								}
							}
						}
					}
				}
			}
		}
	}
}
MOTION
Frames: 4
Frame Time: 0.03333333
0.041228 73.935333 -6.679916 0.000000 0.000000 0.000000 -14.555181 5.696458 1.604384 -37.751159 -3.639001 12.008092 72.587726 0.629137 0.642898 -23.223051 -1.613057 -13.255699 -2.788016 -0.036375 0.071541 0.000000 0.000000 0.000000 -13.506217 3.485969 1.284519 -36.109574 -1.327220 -17.695388 73.943450 0.563844 -1.588975 -26.064666 -3.382323 14.114263 0.417577 0.067708 -1.734891 0.000000 0.000000 0.000000 -12.945427 4.187627 1.176488 25.183975 -3.301264 -0.223822 16.652199 -0.228963 0.482748 -0.020085 1.019283 0.277700 0.000000 0.000000 0.000000 17.775851 -0.240202 0.649307 8.309913 -4.129988 1.213792 -12.451560 -2.130568 -4.037590 0.000000 0.000000 0.000000 18.364029 -0.381612 0.284795 0.702832 -19.168335 -4.353500 -1.463259 -1.786084 -4.603724 -29.440646 -0.002130 -59.865003 -135.973425 -77.051979 -133.865082 0.000000 0.000000 0.000000 18.068482 -0.017849 0.763581 7.388869 2.996372 21.426840 2.543123 3.688823 4.118394 -31.332192 9.898336 42.607225 -104.308375 63.029150 95.249802 0.000000 0.000000 0.000000 
-0.086567 74.559547 -6.268848 0.000000 0.000000 0.000000 -15.309806 5.405672 1.295866 -35.764643 -3.798415 12.226690 71.572903 0.755050 0.835056 -23.344239 -1.558230 -13.075373 -2.929570 -0.021457 0.039563 0.000000 0.000000 0.000000 -14.383366 3.708307 1.045515 -34.154228 -1.408298 -17.080879 73.247577 0.432556 -1.583102 -26.380648 -3.546902 14.011810 0.347799 0.043475 -1.627989 0.000000 0.000000 0.000000 -14.150075 3.819733 1.020527 24.790119 -3.047155 -0.349999 16.140055 -0.171142 0.580932 -0.238886 0.621202 0.295420 0.000000 0.000000 0.000000 17.023241 -0.186488 0.665090 8.014548 -3.975360 0.604644 -11.874957 -1.754074 -3.573747 0.000000 0.000000 0.000000 18.124889 -0.463047 0.387167 0.545913 -19.436528 -5.516011 -0.795055 -2.104584 -4.012310 -27.175890 -1.576331 -60.206608 -131.830601 -79.893645 -129.681742 0.000000 0.000000 0.000000 17.554860 0.049104 0.911506 7.359817 3.372197 21.708539 2.169441 2.928375 4.285134 -28.524796 8.194970 40.978864 -103.290984 62.916451 93.817115 0.000000 0.000000 0.000000 
-0.274100 75.397133 -5.893848 0.000000 0.000000 0.000000 -16.173343 5.097226 0.981696 -33.527445 -4.049358 12.499822 70.106230 0.866220 1.051694 -23.315276 -1.562959 -12.903039 -3.003439 -0.020549 0.025427 0.000000 0.000000 0.000000 -15.405061 3.907772 0.823796 -31.832189 -1.739404 -16.434926 72.108827 0.289426 -1.543958 -26.659123 -3.738496 13.842590 0.217924 0.034946 -1.519198 0.000000 0.000000 0.000000 -15.470498 3.692183 0.769894 24.143541 -2.741611 -0.381097 15.782983 -0.154230 0.726362 -0.208995 0.673228 0.368082 0.000000 0.000000 0.000000 16.451368 -0.192707 0.705380 7.613125 -3.705830 -0.114820 -11.513372 -1.289930 -3.022533 0.000000 0.000000 0.000000 17.957653 -0.559742 0.588332 0.415023 -20.139576 -6.635579 -0.769209 -2.313419 -3.675199 -24.447933 -3.987001 -59.631656 -123.080651 -82.212474 -120.380281 0.000000 0.000000 0.000000 17.094990 0.003457 1.110314 7.159382 3.588137 22.092793 1.354877 2.830278 4.217481 -24.803139 7.751750 39.178365 -104.653388 64.066095 94.813278 0.000000 0.000000 0.000000 
-0.494393 76.343269 -5.542023 0.000000 0.000000 0.000000 -17.031119 4.799830 0.719251 -31.244198 -4.335733 12.778528 68.350946 0.962307 1.245208 -23.134310 -1.609060 -12.738702 -3.006016 -0.035685 0.051189 0.000000 0.000000 0.000000 -16.471245 3.987656 0.663322 -29.471334 -2.284302 -15.845665 70.661927 0.162970 -1.472438 -26.795319 -3.926830 13.658429 0.020615 0.043280 -1.464756 0.000000 0.000000 0.000000 -16.705398 3.846958 0.506457 23.441479 -2.452993 -0.337486 15.509807 -0.185253 0.867139 0.226886 1.115646 0.602208 0.000000 0.000000 0.000000 16.035712 -0.245972 0.753450 6.906581 -3.327997 -0.825332 -11.516441 -0.857645 -2.376584 0.000000 0.000000 0.000000 17.699097 -0.659522 0.842960 0.367347 -20.952947 -7.443976 -1.120564 -2.443110 -3.741413 -22.184547 -6.237730 -58.335703 -115.430675 -83.591024 -111.712894 0.000000 0.000000 0.000000 16.641911 -0.140206 1.306823 6.875026 3.501478 22.511457 0.253716 3.011118 4.142111 -20.628175 8.028116 37.999501 -107.574380 66.258470 97.316276 0.000000 0.000000 0.000000 
